<svg id="Layer_1" data-name="Layer 1" xmlns="http://www.w3.org/2000/svg" viewBox="0 0 375.84 345.03"><defs><style>.cls-1{fill:#f5841f;stroke:#f5841f;}.cls-2{fill:#e07726;stroke:#e07726;}.cls-3{fill:#763b19;stroke:#763b19;}.cls-4{fill:#e37725;stroke:#e37725;}.cls-5{fill:#cc6428;stroke:#cc6428;}.cls-6{fill:#e47425;stroke:#e47425;}.cls-7{fill:#c1ac9d;stroke:#c1ac9d;}.cls-8{fill:#d6c1b2;stroke:#d6c1b2;}.cls-9{fill:#243343;stroke:#243343;}.cls-10{stroke:#000;}</style></defs><polygon class="cls-1" points="141.34 53.57 237.92 54.81 218.85 106.5 141.34 53.57"/><polygon class="cls-2" points="354.07 6.36 218.85 106.5 237.92 54.81 354.07 6.36"/><polygon class="cls-1" points="218.85 106.5 165.11 106.01 141.34 53.57 218.85 106.5"/><polygon class="cls-3" points="296.89 149.57 361.33 120.24 358.04 134.44 296.89 149.57"/><polygon class="cls-3" points="355.94 151.52 296.89 149.57 358.04 134.44 355.94 151.52"/><polygon class="cls-3" points="347.4 176.1 271.54 154.44 296.89 149.57 347.4 176.1"/><polygon class="cls-3" points="355.94 151.52 347.4 176.1 296.89 149.57 355.94 151.52"/><polygon class="cls-2" points="245.07 299.51 249.68 300.89 270.96 312.08 245.07 299.51"/><polygon class="cls-3" points="361.33 120.24 296.89 149.57 295.95 72.56 361.33 120.24"/><polygon class="cls-3" points="295.95 72.56 296.89 149.57 271.54 154.44 295.95 72.56"/><polygon class="cls-4" points="165.11 106.01 28.59 0.98 141.34 53.57 165.11 106.01"/><polygon class="cls-3" points="81.78 148.25 20.27 131.99 16.8 117.38 81.78 148.25"/><polygon class="cls-3" points="22.57 149.51 20.27 131.99 81.78 148.25 22.57 149.51"/><polygon class="cls-3" points="31.44 174.75 81.78 148.25 109.4 153.5 31.44 174.75"/><polygon class="cls-3" points="22.57 149.51 81.78 148.25 31.44 174.75 22.57 149.51"/><polygon class="cls-3" points="86.12 70.11 81.78 148.25 16.8 117.38 86.12 70.11"/><polygon class="cls-3" points="109.4 153.5 81.78 148.25 86.12 70.11 109.4 153.5"/><polygon class="cls-4" points="374.22 257.33 352.9 341.84 270.96 312.08 374.22 257.33"/><polygon class="cls-3" points="369.26 125.51 358.04 134.44 361.33 120.24 369.26 125.51"/><polygon class="cls-3" points="355.94 151.52 358.04 134.44 367.04 140.82 355.94 151.52"/><polygon class="cls-3" points="295.95 72.56 372.13 61.23 361.33 120.24 295.95 72.56"/><polygon class="cls-3" points="347.4 176.1 355.94 151.52 363.3 156.37 347.4 176.1"/><polygon class="cls-1" points="297.39 182.4 347.4 176.1 374.22 257.33 297.39 182.4"/><polygon class="cls-3" points="271.54 154.44 218.85 106.5 295.95 72.56 271.54 154.44"/><polygon class="cls-4" points="270.96 312.08 309.9 248.93 374.22 257.33 270.96 312.08"/><polygon class="cls-1" points="297.39 182.4 374.22 257.33 309.9 248.93 297.39 182.4"/><polygon class="cls-4" points="113.18 312.95 23.23 344.38 1.73 257.93 113.18 312.95"/><polygon class="cls-3" points="86.12 70.11 165.11 106.01 109.4 153.5 86.12 70.11"/><polygon class="cls-1" points="347.4 176.1 297.39 182.4 271.54 154.44 347.4 176.1"/><polygon class="cls-3" points="8.81 122.65 16.8 117.38 20.27 131.99 8.81 122.65"/><polygon class="cls-3" points="22.57 149.51 11.22 138.39 20.27 131.99 22.57 149.51"/><polygon class="cls-4" points="271.54 154.44 297.39 182.4 216.9 183.01 271.54 154.44"/><polygon class="cls-4" points="216.9 183.01 218.85 106.5 271.54 154.44 216.9 183.01"/><polygon class="cls-3" points="31.44 174.75 15.17 154.39 22.57 149.51 31.44 174.75"/><polygon class="cls-3" points="16.8 117.38 7.28 56.64 86.12 70.11 16.8 117.38"/><polygon class="cls-1" points="88.16 181.6 1.73 257.93 31.44 174.75 88.16 181.6"/><polygon class="cls-1" points="31.44 174.75 109.4 153.5 88.16 181.6 31.44 174.75"/><polygon class="cls-4" points="1.73 257.93 75.56 249.16 113.18 312.95 1.73 257.93"/><polygon class="cls-1" points="75.56 249.16 1.73 257.93 88.16 181.6 75.56 249.16"/><polygon class="cls-3" points="354.07 6.36 372.13 61.23 295.95 72.56 354.07 6.36"/><polygon class="cls-3" points="295.95 72.56 218.85 106.5 354.07 6.36 295.95 72.56"/><polygon class="cls-4" points="109.4 153.5 165.11 106.01 172.2 182.84 109.4 153.5"/><polygon class="cls-4" points="172.2 182.84 88.16 181.6 109.4 153.5 172.2 182.84"/><polygon class="cls-3" points="28.59 0.98 165.11 106.01 86.12 70.11 28.59 0.98"/><polygon class="cls-3" points="86.12 70.11 7.28 56.64 28.59 0.98 86.12 70.11"/><polygon class="cls-1" points="165.11 106.01 218.85 106.5 216.9 183.01 165.11 106.01"/><polygon class="cls-1" points="216.9 183.01 172.2 182.84 165.11 106.01 216.9 183.01"/><polygon class="cls-5" points="270.96 312.08 265.27 247.18 309.9 248.93 270.96 312.08"/><polygon class="cls-5" points="113.18 312.95 75.56 249.16 123.3 247.3 113.18 312.95"/><polygon class="cls-5" points="216.9 183.01 297.39 182.4 265.71 214.16 216.9 183.01"/><polygon class="cls-6" points="297.39 182.4 265.27 247.18 265.71 214.16 297.39 182.4"/><polygon class="cls-1" points="309.9 248.93 265.27 247.18 297.39 182.4 309.9 248.93"/><polygon class="cls-5" points="122.14 213.94 88.16 181.6 172.2 182.84 122.14 213.94"/><polygon class="cls-7" points="230.53 318.34 270.96 312.08 256.23 322.05 230.53 318.34"/><polygon class="cls-6" points="88.16 181.6 122.14 213.94 123.3 247.3 88.16 181.6"/><polygon class="cls-1" points="88.16 181.6 123.3 247.3 75.56 249.16 88.16 181.6"/><polygon class="cls-8" points="232.13 300.63 270.96 312.08 230.53 318.34 232.13 300.63"/><polygon class="cls-7" points="131.18 322.83 113.18 312.95 167.31 318.71 131.18 322.83"/><polygon class="cls-8" points="270.96 312.08 232.13 300.63 228.19 266.5 270.96 312.08"/><polygon class="cls-4" points="228.19 266.5 265.27 247.18 270.96 312.08 228.19 266.5"/><polygon class="cls-5" points="265.71 214.16 236.54 200.41 216.9 183.01 265.71 214.16"/><polygon class="cls-9" points="225.15 224.47 236.54 200.41 265.71 214.16 225.15 224.47"/><polygon class="cls-1" points="265.27 247.18 225.15 224.47 265.71 214.16 265.27 247.18"/><polygon class="cls-8" points="168.3 300.93 167.31 318.71 113.18 312.95 168.3 300.93"/><polygon class="cls-8" points="113.18 312.95 172.61 266.62 168.3 300.93 113.18 312.95"/><polygon class="cls-4" points="172.61 266.62 113.18 312.95 123.3 247.3 172.61 266.62"/><polygon class="cls-5" points="236.54 200.41 225.15 224.47 216.9 183.01 236.54 200.41"/><polygon class="cls-5" points="172.2 182.84 152.03 200.2 122.14 213.94 172.2 182.84"/><polygon class="cls-9" points="164.84 224.43 122.14 213.94 152.03 200.2 164.84 224.43"/><polygon class="cls-1" points="123.3 247.3 122.14 213.94 164.84 224.43 123.3 247.3"/><polygon class="cls-5" points="152.03 200.2 172.2 182.84 164.84 224.43 152.03 200.2"/><polygon class="cls-2" points="225.15 224.47 216.13 207.16 216.9 183.01 225.15 224.47"/><polygon class="cls-1" points="175 207.08 172.2 182.84 216.9 183.01 175 207.08"/><polygon class="cls-1" points="216.9 183.01 216.13 207.16 175 207.08 216.9 183.01"/><polygon class="cls-6" points="164.84 224.43 172.2 182.84 175 207.08 164.84 224.43"/><polygon class="cls-7" points="256.23 322.05 228.1 332.31 230.53 318.34 256.23 322.05"/><polygon class="cls-7" points="167.31 318.71 170.38 332.71 131.18 322.83 167.31 318.71"/><polygon class="cls-1" points="225.15 224.47 265.27 247.18 228.19 266.5 225.15 224.47"/><polygon class="cls-1" points="172.61 266.62 123.3 247.3 164.84 224.43 172.61 266.62"/><polygon class="cls-6" points="216.13 207.16 225.15 224.47 221.03 261.51 216.13 207.16"/><polygon class="cls-1" points="228.19 266.5 221.03 261.51 225.15 224.47 228.19 266.5"/><polygon class="cls-6" points="175 207.08 179.8 261.59 164.84 224.43 175 207.08"/><polygon class="cls-1" points="164.84 224.43 179.8 261.59 172.61 266.62 164.84 224.43"/><polygon class="cls-1" points="175 207.08 216.13 207.16 221.03 261.51 175 207.08"/><polygon class="cls-1" points="221.03 261.51 179.8 261.59 175 207.08 221.03 261.51"/><polygon class="cls-7" points="232.13 300.63 230.53 318.34 228.1 332.31 232.13 300.63"/><polygon class="cls-7" points="170.38 332.71 167.31 318.71 168.3 300.93 170.38 332.71"/><polygon class="cls-7" points="229.05 295.59 228.1 332.31 170.38 332.71 229.05 295.59"/><polygon class="cls-7" points="228.1 332.31 229.05 295.59 232.13 300.63 228.1 332.31"/><polygon class="cls-7" points="168.3 300.93 172.64 295.83 170.38 332.71 168.3 300.93"/><polygon class="cls-7" points="170.38 332.71 172.64 295.83 229.05 295.59 170.38 332.71"/><polygon class="cls-10" points="228.19 266.5 232.13 300.63 229.05 295.59 228.19 266.5"/><polygon class="cls-10" points="172.64 295.83 168.3 300.93 172.61 266.62 172.64 295.83"/><polygon class="cls-10" points="222.67 265.16 221.03 261.51 228.19 266.5 222.67 265.16"/><polygon class="cls-10" points="229.05 295.59 227.25 270.33 228.19 266.5 229.05 295.59"/><polygon class="cls-10" points="228.19 266.5 227.25 270.33 222.67 265.16 228.19 266.5"/><polygon class="cls-10" points="180.65 265.25 179.8 261.59 221.03 261.51 180.65 265.25"/><polygon class="cls-10" points="221.03 261.51 222.67 265.16 180.65 265.25 221.03 261.51"/><polygon class="cls-10" points="172.61 266.62 179.8 261.59 180.65 265.25 172.61 266.62"/><polygon class="cls-10" points="172.61 266.62 176.05 270.46 172.64 295.83 172.61 266.62"/><polygon class="cls-10" points="180.65 265.25 176.05 270.46 172.61 266.62 180.65 265.25"/><polygon class="cls-10" points="176.05 270.46 227.25 270.33 229.05 295.59 176.05 270.46"/><polygon class="cls-10" points="229.05 295.59 172.64 295.83 176.05 270.46 229.05 295.59"/><polygon class="cls-10" points="222.67 265.16 227.25 270.33 176.05 270.46 222.67 265.16"/><polygon class="cls-10" points="176.05 270.46 180.65 265.25 222.67 265.16 176.05 270.46"/></svg>